<svg xmlns="http://www.w3.org/2000/svg" viewBox="0 0 720 552" width="720" height="552" role="img" aria-label="Most-engaged comments ranked"><style>
.t{font-family:"IBM Plex Sans",-apple-system,sans-serif;font-size:12px;fill:#635f54}
.n{font-family:"IBM Plex Sans",-apple-system,sans-serif;font-size:13px;font-weight:600;fill:#232019}
.l{font-family:"IBM Plex Sans",-apple-system,sans-serif;font-size:14px;fill:#232019}
.q{font-family:"IBM Plex Sans",-apple-system,sans-serif;font-size:13px;fill:#232019}
.h{font-family:"Lora",Georgia,serif;font-size:17px;font-weight:600;fill:#232019}
.ax{stroke:#d8d6d1;stroke-width:1}
</style><rect width="720" height="552" fill="#f5f4ef"/><text class="h" x="32" y="40">Engagement concentrates in a handful of comments</text><text class="t" x="32" y="60">Most-engaged comments. Bar length is engagement; 1,100 = full width.</text><text class="q" x="32" y="99">"Oh my God! There is a shared message board… We’..."</text><rect x="400" y="88" width="300" height="16" fill="#7a1e49" opacity="0.35"/><text class="n" x="32" y="114">1,100</text><text class="q" x="32" y="135">"OpenAI agents downloading this video right now ..."</text><rect x="400" y="124" width="222" height="16" fill="#7a1e49" opacity="0.35"/><text class="n" x="32" y="150">817</text><text class="q" x="32" y="171">"What a fantastic communicator, I love it when r..."</text><rect x="400" y="160" width="104" height="16" fill="#7a1e49" opacity="0.35"/><text class="n" x="32" y="186">383</text><text class="q" x="32" y="207">"What honestly freaks me out isn’t swarm scale b..."</text><rect x="400" y="196" width="89" height="16" fill="#7a1e49" opacity="1.0"/><text class="n" x="32" y="222">329</text><text class="q" x="32" y="243">"13:38 &quot;It’s so sad that even post-singularity w..."</text><rect x="400" y="232" width="81" height="16" fill="#7a1e49" opacity="0.35"/><text class="n" x="32" y="258">298</text><text class="q" x="32" y="279">"So happy you&#x27;re getting independent experts and..."</text><rect x="400" y="268" width="65" height="16" fill="#7a1e49" opacity="1.0"/><text class="n" x="32" y="294">241</text><text class="q" x="32" y="315">"Ajeya&#x27;s incredibly intelligent and well thought..."</text><rect x="400" y="304" width="43" height="16" fill="#7a1e49" opacity="0.35"/><text class="n" x="32" y="330">161</text><text class="q" x="32" y="351">"One thing they didn’t mention when discussing t..."</text><rect x="400" y="340" width="41" height="16" fill="#7a1e49" opacity="1.0"/><text class="n" x="32" y="366">152</text><text class="q" x="32" y="387">"Scott Alexander speculates that giving an impos..."</text><rect x="400" y="376" width="33" height="16" fill="#7a1e49" opacity="1.0"/><text class="n" x="32" y="402">123</text><text class="q" x="32" y="423">"This interview is a banger from the first sente..."</text><rect x="400" y="412" width="32" height="16" fill="#7a1e49" opacity="0.35"/><text class="n" x="32" y="438">118</text><text class="q" x="32" y="459">"Every time you hear &quot;and then someone goes ín a..."</text><rect x="400" y="448" width="31" height="16" fill="#7a1e49" opacity="1.0"/><text class="n" x="32" y="474">115</text><text class="q" x="32" y="495">"Ajeya knocked it out of the park! People in pos..."</text><rect x="400" y="484" width="29" height="16" fill="#7a1e49" opacity="1.0"/><text class="n" x="32" y="510">109</text><rect x="32" y="524" width="10" height="10" fill="#7a1e49"/><text class="t" x="48" y="533">agrees</text><rect x="130" y="524" width="10" height="10" fill="#7a1e49" opacity="0.35"/><text class="t" x="146" y="533">disagrees or mixed</text></svg>