<svg xmlns="http://www.w3.org/2000/svg" viewBox="0 0 720 486" width="720" height="486" role="img" aria-label="Stance by frame heatmap"><style>
.t{font-family:"IBM Plex Sans",-apple-system,sans-serif;font-size:12px;fill:#635f54}
.n{font-family:"IBM Plex Sans",-apple-system,sans-serif;font-size:13px;font-weight:600;fill:#232019}
.l{font-family:"IBM Plex Sans",-apple-system,sans-serif;font-size:14px;fill:#232019}
.q{font-family:"IBM Plex Sans",-apple-system,sans-serif;font-size:13px;fill:#232019}
.h{font-family:"Lora",Georgia,serif;font-size:17px;font-weight:600;fill:#232019}
.ax{stroke:#d8d6d1;stroke-width:1}
</style><rect width="720" height="486" fill="#f5f4ef"/><text class="h" x="32" y="40">Stance within each frame</text><text class="t" x="32" y="60">Cell value is the share of that frame's positioned comments. A frame shaded across every column is used by both sides.</text><text class="t" x="290.0" y="86" text-anchor="middle">Agree</text><text class="t" x="410.0" y="86" text-anchor="middle">Disagree</text><text class="t" x="530.0" y="86" text-anchor="middle">Mixed</text><text class="l" x="218" y="116" text-anchor="end">technical argument</text><rect x="230" y="96" width="116" height="26" fill="#7a1e49" opacity="0.84"/><text class="n" x="288.0" y="115" text-anchor="middle" fill="#f5f4ef">82%</text><rect x="350" y="96" width="116" height="26" fill="#7a1e49" opacity="0.09"/><text class="n" x="408.0" y="115" text-anchor="middle" fill="#232019">1%</text><rect x="470" y="96" width="116" height="26" fill="#7a1e49" opacity="0.23"/><text class="n" x="528.0" y="115" text-anchor="middle" fill="#232019">16%</text><text class="l" x="218" y="146" text-anchor="end">format only</text><rect x="230" y="126" width="116" height="26" fill="#7a1e49" opacity="0.93"/><text class="n" x="288.0" y="145" text-anchor="middle" fill="#f5f4ef">93%</text><rect x="350" y="126" width="116" height="26" fill="#7a1e49" opacity="0.15"/><text class="n" x="408.0" y="145" text-anchor="middle" fill="#232019">7%</text><rect x="470" y="126" width="116" height="26" fill="#7a1e49" opacity="0.08"/><text class="n" x="528.0" y="145" text-anchor="middle" fill="#232019">0%</text><text class="l" x="218" y="176" text-anchor="end">other</text><rect x="230" y="156" width="116" height="26" fill="#7a1e49" opacity="0.36"/><text class="n" x="288.0" y="175" text-anchor="middle" fill="#232019">30%</text><rect x="350" y="156" width="116" height="26" fill="#7a1e49" opacity="0.63"/><text class="n" x="408.0" y="175" text-anchor="middle" fill="#f5f4ef">60%</text><rect x="470" y="156" width="116" height="26" fill="#7a1e49" opacity="0.17"/><text class="n" x="528.0" y="175" text-anchor="middle" fill="#232019">10%</text><text class="l" x="218" y="206" text-anchor="end">general agreement</text><rect x="230" y="186" width="116" height="26" fill="#7a1e49" opacity="1.00"/><text class="n" x="288.0" y="205" text-anchor="middle" fill="#f5f4ef">100%</text><rect x="350" y="186" width="116" height="26" fill="#7a1e49" opacity="0.08"/><text class="n" x="408.0" y="205" text-anchor="middle" fill="#232019">0%</text><rect x="470" y="186" width="116" height="26" fill="#7a1e49" opacity="0.08"/><text class="n" x="528.0" y="205" text-anchor="middle" fill="#232019">0%</text><text class="l" x="218" y="236" text-anchor="end">blame companies</text><rect x="230" y="216" width="116" height="26" fill="#7a1e49" opacity="0.21"/><text class="n" x="288.0" y="235" text-anchor="middle" fill="#232019">14%</text><rect x="350" y="216" width="116" height="26" fill="#7a1e49" opacity="0.08"/><text class="n" x="408.0" y="235" text-anchor="middle" fill="#232019">0%</text><rect x="470" y="216" width="116" height="26" fill="#7a1e49" opacity="0.87"/><text class="n" x="528.0" y="235" text-anchor="middle" fill="#f5f4ef">86%</text><text class="l" x="218" y="266" text-anchor="end">scifi culture</text><rect x="230" y="246" width="116" height="26" fill="#7a1e49" opacity="0.95"/><text class="n" x="288.0" y="265" text-anchor="middle" fill="#f5f4ef">95%</text><rect x="350" y="246" width="116" height="26" fill="#7a1e49" opacity="0.08"/><text class="n" x="408.0" y="265" text-anchor="middle" fill="#232019">0%</text><rect x="470" y="246" width="116" height="26" fill="#7a1e49" opacity="0.13"/><text class="n" x="528.0" y="265" text-anchor="middle" fill="#232019">5%</text><text class="l" x="218" y="296" text-anchor="end">anthropomorphism debate</text><rect x="230" y="276" width="116" height="26" fill="#7a1e49" opacity="0.37"/><text class="n" x="288.0" y="295" text-anchor="middle" fill="#232019">32%</text><rect x="350" y="276" width="116" height="26" fill="#7a1e49" opacity="0.60"/><text class="n" x="408.0" y="295" text-anchor="middle" fill="#f5f4ef">56%</text><rect x="470" y="276" width="116" height="26" fill="#7a1e49" opacity="0.19"/><text class="n" x="528.0" y="295" text-anchor="middle" fill="#232019">12%</text><text class="l" x="218" y="326" text-anchor="end">hype or staged</text><rect x="230" y="306" width="116" height="26" fill="#7a1e49" opacity="0.08"/><text class="n" x="288.0" y="325" text-anchor="middle" fill="#232019">0%</text><rect x="350" y="306" width="116" height="26" fill="#7a1e49" opacity="0.94"/><text class="n" x="408.0" y="325" text-anchor="middle" fill="#f5f4ef">93%</text><rect x="470" y="306" width="116" height="26" fill="#7a1e49" opacity="0.14"/><text class="n" x="528.0" y="325" text-anchor="middle" fill="#232019">7%</text><text class="l" x="218" y="356" text-anchor="end">fatalism</text><rect x="230" y="336" width="116" height="26" fill="#7a1e49" opacity="0.96"/><text class="n" x="288.0" y="355" text-anchor="middle" fill="#f5f4ef">96%</text><rect x="350" y="336" width="116" height="26" fill="#7a1e49" opacity="0.08"/><text class="n" x="408.0" y="355" text-anchor="middle" fill="#232019">0%</text><rect x="470" y="336" width="116" height="26" fill="#7a1e49" opacity="0.12"/><text class="n" x="528.0" y="355" text-anchor="middle" fill="#232019">4%</text><text class="l" x="218" y="386" text-anchor="end">emergence significance</text><rect x="230" y="366" width="116" height="26" fill="#7a1e49" opacity="0.91"/><text class="n" x="288.0" y="385" text-anchor="middle" fill="#f5f4ef">90%</text><rect x="350" y="366" width="116" height="26" fill="#7a1e49" opacity="0.08"/><text class="n" x="408.0" y="385" text-anchor="middle" fill="#232019">0%</text><rect x="470" y="366" width="116" height="26" fill="#7a1e49" opacity="0.17"/><text class="n" x="528.0" y="385" text-anchor="middle" fill="#232019">10%</text><text class="l" x="218" y="416" text-anchor="end">mundane not ai</text><rect x="230" y="396" width="116" height="26" fill="#7a1e49" opacity="0.08"/><text class="n" x="288.0" y="415" text-anchor="middle" fill="#232019">0%</text><rect x="350" y="396" width="116" height="26" fill="#7a1e49" opacity="0.49"/><text class="n" x="408.0" y="415" text-anchor="middle" fill="#232019">44%</text><rect x="470" y="396" width="116" height="26" fill="#7a1e49" opacity="0.59"/><text class="n" x="528.0" y="415" text-anchor="middle" fill="#f5f4ef">56%</text><text class="l" x="218" y="446" text-anchor="end">policy leaders</text><rect x="230" y="426" width="116" height="26" fill="#7a1e49" opacity="0.69"/><text class="n" x="288.0" y="445" text-anchor="middle" fill="#f5f4ef">67%</text><rect x="350" y="426" width="116" height="26" fill="#7a1e49" opacity="0.08"/><text class="n" x="408.0" y="445" text-anchor="middle" fill="#232019">0%</text><rect x="470" y="426" width="116" height="26" fill="#7a1e49" opacity="0.39"/><text class="n" x="528.0" y="445" text-anchor="middle" fill="#232019">33%</text></svg>