<svg xmlns="http://www.w3.org/2000/svg" viewBox="0 0 720 486" width="720" height="486" role="img" aria-label="Stance by frame heatmap"><style>
.t{font-family:"Space Mono",ui-monospace,Menlo,monospace;font-size:12px;fill:#5C5E64}
.n{font-family:"Space Mono",ui-monospace,Menlo,monospace;font-size:13px;font-weight:700;fill:#17181C}
.l{font-family:"Hanken Grotesk",system-ui,sans-serif;font-size:14px;fill:#17181C}
.q{font-family:"Hanken Grotesk",system-ui,sans-serif;font-size:13px;fill:#17181C}
.h{font-family:"Hanken Grotesk",system-ui,sans-serif;font-size:16px;font-weight:600;fill:#17181C}
.ax{stroke:#DBDBD3;stroke-width:1}
</style><rect width="720" height="486" fill="#F4F4EF"/><text class="h" x="32" y="40">Stance within each frame</text><text class="t" x="32" y="60">Cell value is the share of that frame's positioned comments. A frame shaded across every column is used by both sides.</text><text class="t" x="290.0" y="86" text-anchor="middle">Agree</text><text class="t" x="410.0" y="86" text-anchor="middle">Disagree</text><text class="t" x="530.0" y="86" text-anchor="middle">Mixed</text><text class="l" x="218" y="116" text-anchor="end">format only</text><rect x="230" y="96" width="116" height="26" fill="#2A2AD6" opacity="0.72"/><text class="n" x="288.0" y="115" text-anchor="middle" fill="#F4F4EF">69.2%</text><rect x="350" y="96" width="116" height="26" fill="#2A2AD6" opacity="0.36"/><text class="n" x="408.0" y="115" text-anchor="middle" fill="#17181C">30.8%</text><rect x="470" y="96" width="116" height="26" fill="#2A2AD6" opacity="0.08"/><text class="n" x="528.0" y="115" text-anchor="middle" fill="#17181C">0.0%</text><text class="l" x="218" y="146" text-anchor="end">blame companies</text><rect x="230" y="126" width="116" height="26" fill="#2A2AD6" opacity="0.94"/><text class="n" x="288.0" y="145" text-anchor="middle" fill="#F4F4EF">93.0%</text><rect x="350" y="126" width="116" height="26" fill="#2A2AD6" opacity="0.08"/><text class="n" x="408.0" y="145" text-anchor="middle" fill="#17181C">0.0%</text><rect x="470" y="126" width="116" height="26" fill="#2A2AD6" opacity="0.14"/><text class="n" x="528.0" y="145" text-anchor="middle" fill="#17181C">7.0%</text><text class="l" x="218" y="176" text-anchor="end">hype or staged</text><rect x="230" y="156" width="116" height="26" fill="#2A2AD6" opacity="0.96"/><text class="n" x="288.0" y="175" text-anchor="middle" fill="#F4F4EF">95.2%</text><rect x="350" y="156" width="116" height="26" fill="#2A2AD6" opacity="0.10"/><text class="n" x="408.0" y="175" text-anchor="middle" fill="#17181C">2.4%</text><rect x="470" y="156" width="116" height="26" fill="#2A2AD6" opacity="0.10"/><text class="n" x="528.0" y="175" text-anchor="middle" fill="#17181C">2.4%</text><text class="l" x="218" y="206" text-anchor="end">other</text><rect x="230" y="186" width="116" height="26" fill="#2A2AD6" opacity="0.39"/><text class="n" x="288.0" y="205" text-anchor="middle" fill="#17181C">33.3%</text><rect x="350" y="186" width="116" height="26" fill="#2A2AD6" opacity="0.69"/><text class="n" x="408.0" y="205" text-anchor="middle" fill="#F4F4EF">66.7%</text><rect x="470" y="186" width="116" height="26" fill="#2A2AD6" opacity="0.08"/><text class="n" x="528.0" y="205" text-anchor="middle" fill="#17181C">0.0%</text><text class="l" x="218" y="236" text-anchor="end">swarm was real</text><rect x="230" y="216" width="116" height="26" fill="#2A2AD6" opacity="0.08"/><text class="n" x="288.0" y="235" text-anchor="middle" fill="#17181C">0.0%</text><rect x="350" y="216" width="116" height="26" fill="#2A2AD6" opacity="0.92"/><text class="n" x="408.0" y="235" text-anchor="middle" fill="#F4F4EF">91.7%</text><rect x="470" y="216" width="116" height="26" fill="#2A2AD6" opacity="0.16"/><text class="n" x="528.0" y="235" text-anchor="middle" fill="#17181C">8.3%</text><text class="l" x="218" y="266" text-anchor="end">policy regulation</text><rect x="230" y="246" width="116" height="26" fill="#2A2AD6" opacity="0.69"/><text class="n" x="288.0" y="265" text-anchor="middle" fill="#F4F4EF">66.7%</text><rect x="350" y="246" width="116" height="26" fill="#2A2AD6" opacity="0.14"/><text class="n" x="408.0" y="265" text-anchor="middle" fill="#17181C">6.7%</text><rect x="470" y="246" width="116" height="26" fill="#2A2AD6" opacity="0.33"/><text class="n" x="528.0" y="265" text-anchor="middle" fill="#17181C">26.7%</text><text class="l" x="218" y="296" text-anchor="end">not intelligent</text><rect x="230" y="276" width="116" height="26" fill="#2A2AD6" opacity="0.77"/><text class="n" x="288.0" y="295" text-anchor="middle" fill="#F4F4EF">75.0%</text><rect x="350" y="276" width="116" height="26" fill="#2A2AD6" opacity="0.08"/><text class="n" x="408.0" y="295" text-anchor="middle" fill="#17181C">0.0%</text><rect x="470" y="276" width="116" height="26" fill="#2A2AD6" opacity="0.31"/><text class="n" x="528.0" y="295" text-anchor="middle" fill="#17181C">25.0%</text><text class="l" x="218" y="326" text-anchor="end">us politics</text><rect x="230" y="306" width="116" height="26" fill="#2A2AD6" opacity="1.00"/><text class="n" x="288.0" y="325" text-anchor="middle" fill="#F4F4EF">100.0%</text><rect x="350" y="306" width="116" height="26" fill="#2A2AD6" opacity="0.08"/><text class="n" x="408.0" y="325" text-anchor="middle" fill="#17181C">0.0%</text><rect x="470" y="306" width="116" height="26" fill="#2A2AD6" opacity="0.08"/><text class="n" x="528.0" y="325" text-anchor="middle" fill="#17181C">0.0%</text><text class="l" x="218" y="356" text-anchor="end">general agreement</text><rect x="230" y="336" width="116" height="26" fill="#2A2AD6" opacity="0.89"/><text class="n" x="288.0" y="355" text-anchor="middle" fill="#F4F4EF">87.5%</text><rect x="350" y="336" width="116" height="26" fill="#2A2AD6" opacity="0.08"/><text class="n" x="408.0" y="355" text-anchor="middle" fill="#17181C">0.0%</text><rect x="470" y="336" width="116" height="26" fill="#2A2AD6" opacity="0.20"/><text class="n" x="528.0" y="355" text-anchor="middle" fill="#17181C">12.5%</text><text class="l" x="218" y="386" text-anchor="end">technical argument</text><rect x="230" y="366" width="116" height="26" fill="#2A2AD6" opacity="0.87"/><text class="n" x="288.0" y="385" text-anchor="middle" fill="#F4F4EF">85.7%</text><rect x="350" y="366" width="116" height="26" fill="#2A2AD6" opacity="0.21"/><text class="n" x="408.0" y="385" text-anchor="middle" fill="#17181C">14.3%</text><rect x="470" y="366" width="116" height="26" fill="#2A2AD6" opacity="0.08"/><text class="n" x="528.0" y="385" text-anchor="middle" fill="#17181C">0.0%</text><text class="l" x="218" y="416" text-anchor="end">fatalism</text><rect x="230" y="396" width="116" height="26" fill="#2A2AD6" opacity="0.08"/><text class="n" x="288.0" y="415" text-anchor="middle" fill="#17181C">0.0%</text><rect x="350" y="396" width="116" height="26" fill="#2A2AD6" opacity="1.00"/><text class="n" x="408.0" y="415" text-anchor="middle" fill="#F4F4EF">100.0%</text><rect x="470" y="396" width="116" height="26" fill="#2A2AD6" opacity="0.08"/><text class="n" x="528.0" y="415" text-anchor="middle" fill="#17181C">0.0%</text><text class="l" x="218" y="446" text-anchor="end">scifi culture</text><rect x="230" y="426" width="116" height="26" fill="#2A2AD6" opacity="0.08"/><text class="n" x="288.0" y="445" text-anchor="middle" fill="#17181C">0.0%</text><rect x="350" y="426" width="116" height="26" fill="#2A2AD6" opacity="1.00"/><text class="n" x="408.0" y="445" text-anchor="middle" fill="#F4F4EF">100.0%</text><rect x="470" y="426" width="116" height="26" fill="#2A2AD6" opacity="0.08"/><text class="n" x="528.0" y="445" text-anchor="middle" fill="#17181C">0.0%</text></svg>